<svg width="153" height="35" viewBox="0 0 153 35" fill="currentColor" xmlns="http://www.w3.org/2000/svg">
<g clip-path="url(#clip0_1_8)">
<path d="M6.41209 0H0C0 0 0.888101 0.26643 0.888101 2.6643V26.0214C0.888101 28.4192 0 28.8278 0 28.8278H6.58083C17.1226 28.8278 21.5986 22.3713 21.5986 14.4405C21.5986 6.50978 17.5844 0 6.41209 0ZM5.81706 27.9397H3.55241C3.37385 27.3195 3.29295 26.6753 3.31262 26.0303V2.6643C3.29145 2.02793 3.3724 1.39228 3.55241 0.781529H5.81706C16.3499 0.781529 19.0498 6.93607 19.0498 14.3784C19.0498 21.8207 16.2345 27.9397 5.81706 27.9397Z" fill="currentColor"/>
<path d="M39.414 14.7691V10.0178C39.414 10.0178 38.6147 12.0515 34.5827 12.0515H32.1315V2.6643C32.1098 2.03666 32.1908 1.40969 32.3713 0.808172H37.3003C46.7141 0.808172 47.8154 3.8366 47.8154 3.8366L46.9983 0H28.8367C28.8367 0 29.7248 0.284192 29.7248 2.6643V26.0214C29.7248 28.4192 28.8367 28.8189 28.8367 28.8189H46.9983L47.8243 24.9912C47.8243 24.9912 46.723 28.0374 37.3003 28.0374H32.4157C32.2022 27.3906 32.106 26.7109 32.1315 26.0303V12.7087H34.5827C38.6147 12.7354 39.414 14.7691 39.414 14.7691Z" fill="currentColor"/>
<path d="M73.1973 26.0303L68.0374 17.54C74.2541 16.9183 76.7763 13.7833 76.7763 8.57018C76.7763 3.35702 72.2559 0 66.9895 0H55.0623C55.0623 0 55.8971 0.399646 55.8971 2.79752V26.1457C55.8971 28.5436 55.0623 28.81 55.0623 28.81H59.183C59.183 28.81 58.3571 28.5436 58.3571 26.1457V17.6643H65.6395L70.7639 26.0303C72.2115 28.4281 71.652 28.8278 71.652 28.8278H75.755C75.755 28.8278 74.6715 28.4192 73.1973 26.0303ZM64.3163 16.9361H58.3571V2.81528C58.3367 2.16311 58.4237 1.51203 58.6147 0.888101H65.5507C69.6804 0.888101 74.2452 3.01954 74.2452 8.6057C74.2275 15.5862 69.9024 16.9361 64.2896 16.9361H64.3163Z" fill="currentColor"/>
<path d="M112.034 0H109.077L98.1974 25.5063L87.2915 0H84.0144C84.0144 0 85.2045 0.568385 85.2045 2.6643V26.0214C85.2045 28.4192 84.3785 28.8189 84.3785 28.8189H86.51C86.51 28.8189 85.6219 28.4192 85.6219 26.0214C85.6219 26.0214 85.6219 2.20249 85.6219 2.04263C85.7196 2.23802 97.327 28.8544 97.327 28.8544C97.327 28.8544 108.579 2.21137 108.677 1.99823V26.0303C108.677 28.4281 107.851 28.8278 107.851 28.8278H111.972C111.972 28.8278 111.084 28.4281 111.084 26.0303V2.6643C111.19 0.257549 112.034 0 112.034 0Z" fill="currentColor"/>
<path d="M119.263 28.8278H123.393C123.393 28.8278 122.558 28.4192 122.558 26.0303V2.6643C122.558 0.26643 123.384 0 123.384 0H119.254C119.254 0 120.142 0.284192 120.142 2.6643V26.0214C120.107 28.4192 119.263 28.8278 119.263 28.8278Z" fill="currentColor"/>
<path d="M149.334 21.0391C149.334 25.3464 146.741 28.1439 141.146 28.1439C135.151 28.1439 132.682 22.5045 132.336 21.2434L130.631 23.9787C131.253 25.1066 134.094 28.81 141.128 28.81C148.162 28.81 152.558 26.5009 152.558 20.6661C152.558 10.6039 134.627 14.4494 134.627 6.37657C134.627 2.11368 138.233 0.728243 141.013 0.728243C148.331 0.728243 149.459 6.5009 149.459 6.5009L150.258 2.0604C147.467 0.716281 144.412 0.0123493 141.315 0C133.224 0 132.078 5.32861 132.078 6.41209C132.078 16.8118 149.334 12.6288 149.334 21.0391Z" fill="currentColor"/>
</g>
</svg>
