<svg width="1361" height="108" viewBox="0 0 1361 108" fill="currentColor" xmlns="http://www.w3.org/2000/svg">
<path d="M270.1 106.9H240.5L220 41L199.6 106.9H169.9L206.8 0.799988H233.3L270.1 106.9Z" fill="currentColor"/>
<path d="M80.2 98.1V40.3L54.7 69.5L29.1 40.3V103.6L0 106.4V0.600006H31.8L54.7 29.5L77.7 0.600006H109.4V95.2L80.2 98.1Z" fill="currentColor"/>
<path d="M330.6 106.7V0.600006H359.7V53.8L386.2 0.600006H419.1L389.8 54L421.8 106.7H388.3L359.6 53.8L359.7 106.7H330.6Z" fill="currentColor"/>
<path d="M482.3 106.7V0.600006H530.6C535.8 0.600006 540.6 1.70001 544.9 3.80001C549.3 5.90001 553 8.70001 556.2 12.2C559.3 15.6 561.8 19.6 563.6 24C565.4 28.4 566.3 32.9 566.3 37.4C566.3 43.6 565 49.3 562.3 54.7C559.6 60 555.9 64.4 551.1 67.8L573.5 106.8H540.6L521.9 74.2H511.4V106.8H482.3V106.7ZM511.4 48.7H529.3C531.1 48.7 532.8 47.7 534.3 45.7C535.8 43.7 536.6 40.9 536.6 37.3C536.6 33.6 535.7 30.8 533.9 28.9C532.1 27 530.3 26 528.5 26H511.3V48.7H511.4Z" fill="currentColor"/>
<path d="M738.2 34.2C735.7 27.7 732 21.9 727.4 16.9C722.7 11.8 717.1 7.7 710.5 4.6C703.9 1.5 696.6 0 688.6 0C680.7 0 673.5 1.5 666.9 4.4C660.3 7.3 654.5 11.3 649.7 16.2C644.9 21.1 641.1 26.8 638.4 33.3C635.7 39.8 634.4 46.5 634.4 53.5C634.4 60.4 635.7 67.1 638.3 73.5C640.9 80 644.5 85.7 649.2 90.8C653.9 95.8 659.5 99.9 666.1 103C672.7 106.1 680 107.6 688 107.6C695.9 107.6 703.1 106.1 709.7 103.1C716.3 100.1 722 96.2 726.8 91.2C731.6 86.3 735.3 80.6 738 74.2C740.7 67.8 742 61.1 742 54.1C742.1 47.3 740.8 40.7 738.2 34.2ZM712.4 56C711.1 68.3 700.8 77.9 688.2 77.9C675.6 77.9 665.3 68.3 664 56.1C664 55.8 663.9 55.4 663.9 55.1C663.9 54.7 663.9 54.2 663.9 53.8C663.9 52.9 663.9 52.1 664 51.2C664 51.1 664 51.1 664 51C665.3 38.8 675.6 29.3 688.2 29.3C701.1 29.3 711.6 39.3 712.4 52C712.4 52.1 712.4 52.1 712.4 52.2C712.4 52.6 712.4 53.1 712.4 53.5C712.5 54.3 712.4 55.2 712.4 56Z" fill="currentColor"/>
<path d="M802.6 68.4V38.8H897.2V68.4H802.6Z" fill="currentColor"/>
<path d="M1047.9 79.5C1047.9 84.3 1046.9 88.4 1044.9 91.8C1042.9 95.2 1040.2 98.1 1036.7 100.2C1033.2 102.4 1029.2 104 1024.5 105.1C1019.9 106.1 1015 106.7 1009.8 106.7H957.7V0.600006H1019.2C1022.9 0.600006 1026.2 1.40001 1029.2 3.00001C1032.2 4.60001 1034.7 6.70001 1036.8 9.20001C1038.9 11.7 1040.5 14.6 1041.7 17.9C1042.8 21.1 1043.4 24.4 1043.4 27.8C1043.4 32.8 1042.1 37.5 1039.6 42.1C1037.1 46.6 1033.3 50 1028.2 52.3C1034.3 54.1 1039.1 57.2 1042.6 61.6C1046.2 66.1 1047.9 72 1047.9 79.5ZM986.9 25.4V41.7H1006.8C1008.8 41.7 1010.6 41.2 1012.3 40.1C1013.9 39 1014.8 36.8 1014.8 33.5C1014.8 30.6 1014.1 28.5 1012.7 27.3C1011.3 26.1 1009.7 25.4 1007.8 25.4H986.9ZM1018.4 73.5C1018.4 70.9 1017.7 68.7 1016.3 67C1014.9 65.3 1013.1 64.4 1010.9 64.4H986.9V82.2H1009.9C1012.3 82.2 1014.3 81.5 1015.9 80C1017.5 78.4 1018.4 76.3 1018.4 73.5Z" fill="currentColor"/>
<path d="M1156.3 81.3C1159.7 81.3 1162.6 80.6 1165 79.1C1167.4 77.6 1169.3 75.6 1170.8 73.2C1172.3 70.8 1173.4 67.9 1174.1 64.8C1174.8 61.6 1175.1 58.3 1175.1 54.8V3.20001L1204.2 0.100006V54.6C1204.2 62 1203.3 68.9 1201.4 75.3C1199.5 81.7 1196.6 87.3 1192.6 92C1188.6 96.7 1183.6 100.4 1177.6 103.1C1171.6 105.8 1164.5 107.1 1156.3 107.1C1147.8 107.1 1140.6 105.7 1134.6 102.8C1128.6 100 1123.6 96.2 1119.7 91.4C1115.8 86.6 1113 81.1 1111.2 74.7C1109.4 68.4 1108.5 61.7 1108.5 54.6V10.3L1137.6 7.10001V54.6C1137.6 58.1 1137.9 61.4 1138.6 64.7C1139.3 67.9 1140.4 70.8 1141.9 73.2C1143.4 75.6 1145.3 77.6 1147.7 79C1150 80.6 1152.9 81.3 1156.3 81.3Z" fill="currentColor"/>
<path d="M1265.8 106.2V0.200012H1306.6C1315.4 0.200012 1323.1 1.60001 1329.8 4.40001C1336.5 7.20001 1342 11 1346.5 15.8C1351 20.6 1354.4 26.2 1356.7 32.6C1359 39 1360.1 45.9 1360.1 53.1C1360.1 61.2 1358.8 68.5 1356.3 75C1353.8 81.5 1350.2 87.1 1345.5 91.7C1340.8 96.3 1335.2 99.9 1328.6 102.5C1322 105 1314.7 106.3 1306.6 106.3H1265.8V106.2ZM1330.4 53.1C1330.4 49 1329.9 45.3 1328.8 41.9C1327.7 38.5 1326.1 35.6 1324.1 33.2C1322.1 30.8 1319.5 28.9 1316.6 27.6C1313.6 26.3 1310.3 25.6 1306.6 25.6H1294.9V80.8H1306.6C1310.4 80.8 1313.8 80.1 1316.8 78.7C1319.8 77.3 1322.3 75.4 1324.3 72.9C1326.3 70.4 1327.9 67.5 1328.9 64.1C1329.9 60.7 1330.4 57 1330.4 53.1Z" fill="currentColor"/>
<path d="M650.4 51.2C650.3 52.1 650.3 52.9 650.3 53.8C650.3 54.2 650.3 54.7 650.3 55.1C650.3 54.6 650.2 54.1 650.2 53.6C650.3 52.8 650.3 52 650.4 51.2Z" fill="currentColor"/>
<path d="M698.8 56C698.9 55.2 698.9 54.3 698.9 53.4C698.9 53 698.9 52.5 698.9 52.1C698.9 52.6 699 53.1 699 53.6C698.9 54.4 698.9 55.3 698.8 56Z" fill="currentColor"/>
</svg>
