<svg width="563" height="56" viewBox="0 0 563 56" fill="currentColor" xmlns="http://www.w3.org/2000/svg">
<path d="M48.73 54.4848L48.65 19.3728L31.25 48.4308H26.859L9.45901 19.8268V54.4848H0.0750122V1.5188H8.17099L29.205 36.6268L49.863 1.5188H57.959L58.034 54.4848H48.73Z" fill="currentColor"/>
<path d="M152.015 44.2308C154.84 42.6438 157.061 40.4228 158.678 37.5728C160.29 34.7228 161.099 31.5307 161.099 27.9977C161.099 24.4687 160.29 21.2808 158.678 18.4308C157.061 15.5808 154.84 13.3557 152.015 11.7687C149.19 10.1807 146.011 9.38477 142.482 9.38477C138.949 9.38477 135.774 10.1807 132.949 11.7687C130.124 13.3557 127.903 15.5808 126.29 18.4308C124.674 21.2808 123.865 24.4687 123.865 27.9977C123.865 31.5307 124.674 34.7228 126.29 37.5728C127.903 40.4228 130.124 42.6438 132.949 44.2308C135.774 45.8188 138.949 46.6147 142.482 46.6147C146.011 46.6147 149.19 45.8188 152.015 44.2308ZM127.878 51.7228C123.54 49.3768 120.136 46.1228 117.661 41.9598C115.19 37.8018 113.957 33.1477 113.957 27.9977C113.957 22.8557 115.19 18.2017 117.661 14.0397C120.136 9.87673 123.54 6.62276 127.878 4.28076C132.215 1.93476 137.086 0.759766 142.482 0.759766C147.878 0.759766 152.749 1.93476 157.086 4.28076C161.424 6.62276 164.828 9.86477 167.299 14.0018C169.774 18.1398 171.011 22.8057 171.011 27.9977C171.011 33.1977 169.774 37.8647 167.299 41.9977C164.828 46.1397 161.424 49.3768 157.086 51.7228C152.749 54.0688 147.878 55.2438 142.482 55.2438C137.086 55.2438 132.215 54.0688 127.878 51.7228Z" fill="currentColor"/>
<path d="M237.522 20.2079V1.51587H247.359V20.0539L268.168 54.4869H257.651L242.138 28.6829L226.476 54.4869H216.788L237.522 20.2079Z" fill="currentColor"/>
<path d="M323.445 53.4998C319.632 52.3418 316.62 50.8048 314.403 48.8878L317.807 41.2418C319.974 42.9588 322.636 44.3588 325.79 45.4418C328.94 46.5298 332.111 47.0708 335.286 47.0708C339.22 47.0708 342.161 46.4378 344.103 45.1748C346.045 43.9168 347.015 42.2548 347.015 40.1838C347.015 38.6708 346.474 37.4208 345.39 36.4378C344.303 35.4548 342.928 34.6838 341.265 34.1298C339.599 33.5748 337.332 32.9458 334.453 32.2378C330.415 31.2798 327.153 30.3208 324.657 29.3628C322.157 28.4048 320.011 26.9048 318.224 24.8588C316.432 22.8168 315.54 20.0548 315.54 16.5748C315.54 13.6498 316.332 10.9878 317.92 8.5918C319.511 6.1958 321.903 4.29182 325.107 2.87982C328.311 1.46682 332.232 0.758789 336.878 0.758789C340.103 0.758789 343.282 1.16283 346.411 1.97083C349.536 2.77983 352.236 3.93783 354.507 5.44983L351.403 13.0918C349.082 11.7338 346.661 10.6998 344.14 9.99182C341.615 9.28782 339.17 8.93384 336.803 8.93384C332.915 8.93384 330.028 9.58784 328.136 10.8998C326.245 12.2128 325.299 13.9498 325.299 16.1208C325.299 17.6338 325.84 18.8708 326.924 19.8248C328.011 20.7878 329.386 21.5458 331.049 22.0998C332.715 22.6548 334.986 23.2838 337.857 23.9878C341.795 24.8998 345.024 25.8418 347.545 26.8298C350.07 27.8088 352.224 29.3128 354.015 31.3298C355.807 33.3498 356.699 36.0708 356.699 39.5048C356.699 42.4298 355.907 45.0798 354.32 47.4458C352.728 49.8208 350.32 51.7128 347.09 53.1248C343.861 54.5338 339.928 55.2418 335.286 55.2418C331.199 55.2418 327.253 54.6628 323.445 53.4998Z" fill="currentColor"/>
<path d="M446.144 44.2308C448.969 42.6438 451.185 40.4228 452.802 37.5728C454.415 34.7228 455.223 31.5307 455.223 27.9977C455.223 24.4687 454.415 21.2808 452.802 18.4308C451.185 15.5808 448.969 13.3557 446.144 11.7687C443.315 10.1807 440.14 9.38477 436.606 9.38477C433.077 9.38477 429.898 10.1807 427.073 11.7687C424.248 13.3557 422.027 15.5808 420.415 18.4308C418.802 21.2808 417.994 24.4687 417.994 27.9977C417.994 31.5307 418.802 34.7228 420.415 37.5728C422.027 40.4228 424.248 42.6438 427.073 44.2308C429.898 45.8188 433.077 46.6147 436.606 46.6147C440.14 46.6147 443.315 45.8188 446.144 44.2308ZM422.006 51.7228C417.665 49.3768 414.26 46.1228 411.79 41.9598C409.315 37.8018 408.081 33.1477 408.081 27.9977C408.081 22.8557 409.315 18.2017 411.79 14.0397C414.26 9.87673 417.665 6.62276 422.006 4.28076C426.344 1.93476 431.21 0.759766 436.606 0.759766C442.006 0.759766 446.873 1.93476 451.21 4.28076C455.552 6.62276 458.956 9.86477 461.427 14.0018C463.898 18.1398 465.135 22.8057 465.135 27.9977C465.135 33.1977 463.898 37.8647 461.427 41.9977C458.956 46.1397 455.552 49.3768 451.21 51.7228C446.873 54.0688 442.006 55.2438 436.606 55.2438C431.21 55.2438 426.344 54.0688 422.006 51.7228Z" fill="currentColor"/>
<path d="M541.56 35.7939V54.4859H531.723V35.9479L510.914 1.51489H521.431L536.943 27.3188L552.606 1.51489H562.293L541.56 35.7939Z" fill="currentColor"/>
</svg>
