<svg width="600" height="108" viewBox="0 0 600 108" fill="currentColor" xmlns="http://www.w3.org/2000/svg">
<path d="M0 81.1V70.6H10.5V10.5H0V0H34C41.9 0 48.1 0.300003 52.6 0.800003C57.1 1.3 60.6 2.10001 63.1 3.10001C65.6 4.20001 67.9 5.70001 70 7.90001C71.9 9.80001 73.3 12.2 74.3 15C75.3 17.9 75.8 20.9 75.8 24.2C75.8 26.9 75.5 29.3 74.8 31.6C74.1 33.9 73.1 35.8 71.9 37.6C70.7 39.4 69.1 40.9 67.3 42.2C65.5 43.6 63.5 44.7 61.3 45.6C59.1 46.5 56.7 47.3 54 47.9C51.3 48.5 48.6 49 45.7 49.2C42.9 49.5 39.8 49.6 36.6 49.6H31.4V70.5H44.5V81H0V81.1ZM31.3 39.3H36.6C47.1 39.3 52.3 34.5 52.3 24.9C52.3 23.2 52.2 21.7 52 20.4C51.8 19.1 51.4 17.7 50.7 16.5C50.1 15.2 49.3 14.2 48.3 13.3C47.3 12.4 46.1 11.8 44.5 11.3C43 10.8 41.2 10.5 39.1 10.5H31.3V39.3Z" fill="currentColor"/>
<path d="M136.6 41.8V70.7H143.1V81.2H122.7L119.8 74.4C117.6 77.6 115 79.8 112.1 80.9C109.2 82.1 105.1 82.7 99.8 82.7C97.1 82.7 94.5 82.2 92.2 81.3C89.9 80.4 87.9 79.1 86.2 77.4C84.6 75.8 83.3 73.8 82.3 71.5C81.4 69.2 80.9 66.8 80.9 64.1C80.9 59.6 82.7 55.8 86.2 52.9C89.7 50 94.2 48.4 99.7 48.4C104.1 48.4 107.8 48.8 110.7 49.7C113.6 50.5 116.1 51.9 118.2 53.7V39.8C118.2 37.8 117.9 36.2 117.4 34.9C116.9 33.6 116.1 32.6 115 31.9C113.9 31.2 112.7 30.7 111.4 30.4C110.1 30.1 108.5 30 106.6 30C105.1 30 103.8 30.3 102.6 30.9C103.3 32.3 103.6 33.8 103.6 35.4C103.6 38.3 102.6 40.8 100.5 42.8C98.5 44.8 96 45.9 93.1 45.9C90.2 45.9 87.7 44.9 85.7 42.8C83.7 40.8 82.6 38.3 82.6 35.4C82.6 33.9 82.9 32.5 83.5 31.2C84.1 29.9 84.9 28.7 85.9 27.8C86.8 26.9 87.7 26.1 88.6 25.3C89.5 24.6 90.7 23.8 92.1 23.1C93.5 22.4 95.1 21.8 96.8 21.3C98.5 20.8 100.5 20.4 102.8 20.1C105.1 19.8 107.7 19.7 110.5 19.7C114.1 19.7 117.5 20.2 120.7 21.3C123.9 22.4 126.6 23.8 128.9 25.7C131.2 27.6 133 29.9 134.4 32.7C135.9 35.5 136.6 38.5 136.6 41.8ZM118.3 66.6V62.1C116.9 60.8 115.4 59.7 113.7 58.8C112 57.9 110.4 57.5 109 57.5C105.9 57.5 103.7 58 102.5 59.1C101.2 60.1 100.6 61.8 100.6 64.1C100.6 66.9 101.1 68.9 102.2 70.2C103.3 71.5 105.3 72.2 108.3 72.2C110 72.2 111.7 71.7 113.5 70.6C115.4 69.5 117 68.2 118.3 66.6Z" fill="currentColor"/>
<path d="M192.1 19.7C195.2 19.7 197.8 20.1 200.1 20.9C202.4 21.7 204.3 22.9 205.7 24.3C207.2 25.7 208.3 27.6 209.2 29.8C210.1 32 210.7 34.4 211.1 37C211.5 39.6 211.6 42.5 211.6 45.8V70.6H218.1V81.1H186.7V70.6H193.2V44.5C193.2 41.1 192.9 38.4 192.3 36.5C191.7 34.6 190.8 33.3 189.6 32.5C188.4 31.8 186.8 31.4 184.8 31.4C183 31.4 181.1 32.2 179.2 33.7C177.3 35.2 175.5 37.4 173.7 40.2L173.5 70.6H180V81.1H149V70.6H155.5V31.4H149V20.9H169.3L173.9 29.8C174.7 28.3 175.6 27 176.7 25.9C177.8 24.7 179 23.7 180.5 22.7C182 21.7 183.7 21 185.7 20.5C187.6 20 189.8 19.7 192.1 19.7Z" fill="currentColor"/>
<path d="M331.4 30.4C326.4 30.4 321.7 31.9 317.7 34.6C316.4 32.3 314.8 30.3 312.9 28.5C310.1 25.8 306.7 23.7 302.9 22.2C299.1 20.7 295 19.9 290.7 19.9C286.4 19.9 282.4 20.7 278.5 22.2C274.7 23.7 271.4 25.8 268.5 28.5C265.6 31.2 263.4 34.5 261.8 38.5C260.2 42.4 259.3 46.7 259.3 51.4C259.3 56.1 260.1 60.3 261.8 64.3C263.4 68.2 265.7 71.6 268.5 74.3C271.3 77 274.6 79.1 278.5 80.6C282.3 82.1 286.4 82.8 290.7 82.8C295 82.8 299 82 302.9 80.6C306.7 79.1 310.1 77 312.9 74.3C315.7 71.6 318 68.3 319.6 64.3C321.3 60.3 322.1 56.1 322.1 51.4C322.1 48.7 321.8 46.1 321.2 43.6C324 41.1 327.6 39.8 331.4 39.8C335.9 39.8 340.2 41.8 343.1 45.2L350.2 39.2C345.4 33.5 338.6 30.4 331.4 30.4ZM301.8 61.1C301.3 63.8 300.5 66 299.4 67.6C298.4 69.2 297.1 70.4 295.7 71.1C294.3 71.8 292.6 72.2 290.7 72.2C289.2 72.2 287.8 72 286.6 71.5C285.4 71.1 284.3 70.3 283.3 69.3C282.3 68.3 281.5 67 280.8 65.4C280.2 63.8 279.7 61.8 279.3 59.4C278.9 57 278.8 54.3 278.8 51.1C278.8 48 279 45.2 279.3 42.8C279.7 40.4 280.2 38.4 280.8 36.9C281.4 35.3 282.3 34 283.3 33C284.3 32 285.4 31.3 286.6 30.8C287.8 30.4 289.2 30.2 290.7 30.2C292.6 30.2 294.3 30.6 295.7 31.3C297.1 32 298.4 33.2 299.4 34.8C300.5 36.4 301.2 38.6 301.8 41.3C302.3 44 302.6 47.3 302.6 51.1C302.6 54.9 302.4 58.3 301.8 61.1Z" fill="currentColor"/>
<path d="M359.8 22.2C363.6 20.7 367.7 19.9 372 19.9C376.3 19.9 380.3 20.7 384.2 22.2C388 23.7 391.3 25.8 394.2 28.5C397.1 31.2 399.3 34.5 400.9 38.5C402.5 42.4 403.4 46.7 403.4 51.4C403.4 56 402.6 60.3 400.9 64.3C399.3 68.2 397 71.6 394.2 74.3C391.4 77 388 79.1 384.2 80.6C380.4 82.1 376.3 82.9 372 82.9C367.7 82.9 363.7 82.1 359.8 80.6C356 79.1 352.7 77 349.8 74.3C347 71.6 344.7 68.3 343.1 64.3C341.5 60.4 340.6 56.1 340.6 51.4C340.6 46.8 341.4 42.5 343.1 38.5C344.7 34.6 347 31.2 349.8 28.5C352.6 25.8 356 23.7 359.8 22.2ZM372 30.4C370.5 30.4 369.1 30.6 367.9 31.1C366.7 31.5 365.6 32.3 364.6 33.3C363.6 34.3 362.8 35.6 362.1 37.2C361.5 38.8 361 40.8 360.6 43.1C360.2 45.5 360.1 48.2 360.1 51.4C360.1 54.5 360.3 57.3 360.6 59.7C360.9 62.1 361.5 64.1 362.1 65.6C362.7 67.2 363.6 68.5 364.6 69.5C365.6 70.5 366.7 71.2 367.9 71.7C369.1 72.1 370.5 72.4 372 72.4C373.9 72.4 375.6 72 377 71.3C378.4 70.6 379.7 69.4 380.7 67.8C381.8 66.2 382.6 64 383.1 61.3C383.6 58.6 383.9 55.3 383.9 51.5C383.9 47.7 383.6 44.4 383.1 41.7C382.6 39 381.8 36.8 380.7 35.2C379.6 33.6 378.4 32.4 377 31.7C375.5 30.7 373.9 30.4 372 30.4Z" fill="#45BAB9"/>
<path d="M427.5 7.90001H434V21H452.3V31.5H434V65.5C434 67 434.4 68.2 435.3 69.2C436.1 70.2 437.5 70.7 439.3 70.7C441.3 70.7 443 70 444.5 68.7C445.9 67.4 446.8 65.4 447.2 62.9L455 64.2C454.7 66.7 454 69.1 453.1 71.3C452.2 73.5 451 75.4 449.5 77.1C448 78.8 446.2 80.1 444 81.1C441.8 82.1 439.4 82.6 436.7 82.6C430.2 82.6 425.1 81.1 421.4 78C417.7 75 415.8 70.8 415.8 65.6V31.6H409.3V21.1H410.6C414 21.1 416.9 20.1 419.5 18.2C421.9 16.2 424.6 12.8 427.5 7.90001Z" fill="currentColor"/>
<path d="M461.9 101.3C460.7 99.6 460.2 97.6 460.2 95.5C460.2 92.6 461.2 90.1 463.3 88.1C465.3 86.1 467.8 85 470.7 85C473.6 85 476.1 86 478.1 88.1C480.1 90.1 481.2 92.6 481.2 95.5C481.2 96.1 481.1 96.7 481 97.3H481.2C482.8 97.3 484.7 94.7 487 89.5L489.5 83.9L466.5 31.5H460.4V21H497V31.5H486L496.4 55C497.7 58.1 498.7 60.7 499.3 62.8C499.9 60.7 500.8 58.1 502.2 55L512.5 31.5H503.4V21H530.8V31.5H523.9L502 81.1C500.9 83.7 499.8 85.9 498.9 87.7C498 89.6 497 91.5 495.9 93.4C494.8 95.3 493.7 97 492.6 98.3C491.6 99.6 490.4 100.9 489.1 102.1C487.8 103.3 486.4 104.3 485 105C483.6 105.7 482 106.3 480.3 106.7C478.6 107.1 476.7 107.3 474.7 107.3C472.8 107.3 471.2 107.2 469.8 106.9C468.4 106.6 467.2 106.2 466.2 105.6C465.2 105 464.4 104.4 463.7 103.7C463.1 103 462.5 102.2 461.9 101.3Z" fill="currentColor"/>
<path d="M530.6 0.100006H555.5V70.7H562V81.2H530.6V70.7H537.1V10.6H530.6V0.100006ZM567.3 31.5V21H598.7V31.5H590.1L577.1 45.7L594.6 70.7H600V81.2H568.6V70.7H572.8L558.2 49.8L574.9 31.5H567.3Z" fill="currentColor"/>
<path d="M360.1 86V107.3H340.7V70.7C342.3 73.4 344.1 75.7 346.3 77.8C349.6 80.9 353.5 83.4 357.9 85.2C358.6 85.5 359.3 85.7 360.1 86Z" fill="#45BAB9"/>
<path d="M366.8 100.5H333.9V107.2H366.8V100.5Z" fill="#45BAB9"/>
</svg>
