<svg width="180" height="34" viewBox="0 0 180 34" fill="none" xmlns="http://www.w3.org/2000/svg">
<g clip-path="url(#clip0_609_44)">
<rect width="99" height="34" rx="5" fill="#EEC536"/>
<path d="M113.741 25.684C110.958 25.684 110.483 23.866 110.483 21.246V9.60401H116.524V8.00401H110.483V2.18401L108.783 2.40401V8.00401H105.054V9.60401H108.787V21.324C108.787 25.106 110.007 27.51 113.741 27.51C114.91 27.4695 116.051 27.1452 117.067 26.565L116.455 25.037C115.599 25.4205 114.678 25.64 113.741 25.684Z" fill="#142832"/>
<path d="M134.239 18.627C134.239 22.555 131.658 25.611 128.061 25.611C124.191 25.684 121.747 23.354 121.747 18.989V7.92999H119.983V18.989C119.983 24.299 123.241 27.428 127.993 27.428C129.294 27.4504 130.575 27.108 131.691 26.4396C132.807 25.7711 133.713 24.8033 134.307 23.646V27.065H136.007V7.92999H134.243L134.239 18.627Z" fill="#142832"/>
<path d="M149.668 7.714C148.135 7.64678 146.617 8.04067 145.311 8.8448C144.004 9.64893 142.969 10.8264 142.338 12.225V0H140.638V27.139H142.338V22.921C143.028 24.2883 144.087 25.4353 145.394 26.2325C146.702 27.0296 148.207 27.4451 149.738 27.432C154.692 27.432 158.63 23.866 158.63 17.538C158.628 11.279 154.622 7.714 149.668 7.714ZM149.6 25.614C145.46 25.614 142.335 22.338 142.335 17.538C142.335 12.738 145.525 9.538 149.6 9.538C153.6 9.538 156.865 12.231 156.865 17.614C156.863 22.921 153.603 25.611 149.6 25.611V25.614Z" fill="#142832"/>
<path d="M171.117 7.714C166.163 7.714 162.088 11.862 162.088 17.608C162.088 23.72 166.088 27.502 171.117 27.502C172.597 27.5253 174.062 27.2017 175.394 26.5571C176.726 25.9125 177.889 24.9648 178.789 23.79L177.569 22.698C176.79 23.6275 175.812 24.3711 174.709 24.8745C173.605 25.378 172.403 25.6286 171.19 25.608C167.525 25.608 164.336 22.988 163.99 18.477H179.941C180.552 10.986 176.074 7.714 171.117 7.714ZM163.856 16.814C164.263 12.083 167.384 9.467 171.056 9.467C175.333 9.467 178.184 12.087 178.256 16.814H163.856Z" fill="#142832"/>
<path d="M14.431 15.08C12.731 15.007 11.778 14.424 11.778 13.405C11.778 12.456 12.664 11.8 14.363 11.8C15.8884 11.7453 17.3832 12.2364 18.579 13.185L21.164 9.685C20.2525 8.84023 19.1815 8.18599 18.0138 7.76064C16.8461 7.33529 15.6053 7.1474 14.364 7.208C10.487 7.208 6.682 9.029 6.682 13.408C6.682 17.927 10.829 19.385 14.094 19.532C16.474 19.605 17.086 20.332 17.086 21.207C17.154 22.226 15.93 22.882 14.433 22.812C12.1426 22.8151 9.93439 21.9586 8.245 20.412L6 24.345C7.10589 25.4203 8.41512 26.2642 9.8511 26.8274C11.2871 27.3906 12.821 27.6618 14.363 27.625C20.008 27.625 22.182 24.272 22.114 21.138C22.12 15.956 17.97 15.153 14.431 15.08Z" fill="white"/>
<path d="M38.846 9.979C38.2788 9.12254 37.4971 8.42961 36.5788 7.96923C35.6605 7.50884 34.6376 7.29707 33.612 7.355C28.378 7.282 24.295 10.998 24.295 17.415C24.295 23.755 28.172 27.475 33.475 27.475C35.175 27.402 37.759 26.675 38.915 24.631L39.189 27.031H43.88V7.791H39.051L38.846 9.979ZM34.083 22.443C33.4364 22.4489 32.7957 22.3202 32.2016 22.0651C31.6075 21.8099 31.073 21.434 30.6321 20.9611C30.1911 20.4882 29.8535 19.9287 29.6405 19.3182C29.4275 18.7077 29.3439 18.0596 29.395 17.415C29.395 14.208 31.505 12.315 34.086 12.315C37.146 12.315 38.777 14.866 38.777 17.636C38.793 18.2621 38.6834 18.8851 38.4546 19.4681C38.2258 20.0512 37.8825 20.5825 37.4449 21.0306C37.0073 21.4787 36.4844 21.8345 35.9069 22.0771C35.3295 22.3197 34.7093 22.4441 34.083 22.443Z" fill="white"/>
<path d="M53.466 0H48.296V26.962H53.466V0Z" fill="white"/>
<path d="M66.318 7.20799C60.536 7.20799 56.864 11.291 56.864 17.121C56.864 23.245 60.399 27.321 66.793 27.321C69.446 27.321 72.506 26.521 74.411 24.477L71.488 20.977C70.1765 22.0172 68.5392 22.5599 66.866 22.509C63.943 22.509 62.308 20.977 62.038 19.156H75.094C76.315 11.291 72.369 7.20799 66.318 7.20799ZM62.171 15.08C62.4028 14.1696 62.9424 13.3675 63.6983 12.8097C64.4542 12.252 65.3798 11.9729 66.318 12.02C68.492 12.02 70.465 12.969 70.534 15.08H62.171Z" fill="white"/>
<path d="M85.696 15.08C83.996 15.007 83.043 14.424 83.043 13.405C83.043 12.456 83.929 11.8 85.628 11.8C87.1534 11.7453 88.6482 12.2364 89.844 13.185L92.429 9.685C91.5175 8.84024 90.4465 8.18599 89.2788 7.76064C88.1111 7.33529 86.8703 7.1474 85.629 7.208C81.752 7.208 77.947 9.029 77.947 13.408C77.947 17.927 82.094 19.385 85.359 19.532C87.739 19.605 88.351 20.332 88.351 21.207C88.419 22.226 87.195 22.882 85.698 22.812C83.4076 22.815 81.1995 21.9585 79.51 20.412L77.265 24.338C78.3709 25.4133 79.6801 26.2572 81.1161 26.8204C82.5521 27.3836 84.086 27.6548 85.628 27.618C91.273 27.618 93.447 24.265 93.379 21.131C93.382 15.956 89.167 15.153 85.696 15.08Z" fill="white"/>
</g>
<defs>
<clipPath id="clip0_609_44">
<rect width="180" height="34" fill="white"/>
</clipPath>
</defs>
</svg>
