<svg width="2866" height="834" viewBox="0 0 2866 834" fill="currentColor" xmlns="http://www.w3.org/2000/svg">
<path d="M978.15 364.647C965.258 361.093 954.787 356.359 946.733 350.434L962.441 313.389C970.012 318.634 978.791 322.864 988.783 326.076C998.77 329.293 1008.6 330.897 1018.27 330.897C1036.63 330.897 1045.82 326.076 1045.82 316.435C1045.82 311.355 1043.19 307.597 1037.96 305.143C1032.72 302.689 1024.31 300.109 1012.71 297.401C999.979 294.526 989.345 291.439 980.808 288.139C972.266 284.839 964.937 279.555 958.816 272.28C952.691 265.005 949.633 255.193 949.633 242.843C949.633 232.018 952.45 222.251 958.091 213.534C963.729 204.826 972.145 197.93 983.345 192.855C994.541 187.78 1008.28 185.243 1024.55 185.243C1035.67 185.243 1046.62 186.551 1057.42 189.176C1068.21 191.801 1077.72 195.643 1085.93 200.722L1071.19 238.022C1055.08 228.889 1039.45 224.322 1024.31 224.322C1014.8 224.322 1007.87 225.805 1003.52 228.76C999.175 231.722 997 235.572 997 240.305C997 245.043 999.575 248.597 1004.73 250.964C1009.89 253.334 1018.18 255.784 1029.62 258.322C1042.51 261.201 1053.19 264.284 1061.65 267.584C1070.1 270.884 1077.43 276.13 1083.64 283.318C1089.84 290.509 1092.94 300.28 1092.94 312.626C1092.94 323.285 1090.12 332.926 1084.48 341.555C1078.84 350.18 1070.38 357.076 1059.11 362.234C1047.83 367.393 1034.13 369.976 1018.02 369.976C1004.33 369.976 991.037 368.197 978.15 364.647Z" fill="currentColor"/>
<path d="M1248.34 228.887L1191.79 372.003C1185.18 388.92 1177.12 400.803 1167.62 407.653C1158.12 414.508 1146.52 417.937 1132.82 417.937C1125.89 417.937 1118.92 416.791 1111.92 414.508C1104.91 412.22 1099.23 409.216 1094.88 405.499L1110.83 371.749C1113.41 374.287 1116.51 376.274 1120.13 377.712C1123.76 379.149 1127.42 379.87 1131.13 379.87C1135.48 379.87 1139.06 378.937 1141.89 377.078C1144.7 375.216 1147.08 372.257 1149.02 368.195L1092.94 228.887H1140.07L1172.22 312.878L1204.6 228.887H1248.34Z" fill="currentColor"/>
<path d="M1273.23 364.777C1262.6 362.156 1254.06 358.731 1247.61 354.502L1261.39 321.511C1267.35 325.406 1274.44 328.49 1282.66 330.773C1290.87 333.056 1299 334.198 1307.07 334.198C1314.47 334.198 1319.76 333.398 1322.89 331.79C1326.03 330.186 1327.61 327.856 1327.61 324.811C1327.61 321.765 1325.71 319.611 1321.93 318.34C1318.14 317.069 1312.14 315.848 1303.92 314.661C1293.45 313.306 1284.55 311.531 1277.22 309.331C1269.88 307.136 1263.56 303.073 1258.25 297.152C1252.93 291.231 1250.27 282.94 1250.27 272.281C1250.27 263.49 1252.77 255.665 1257.76 248.811C1262.76 241.961 1270.05 236.548 1279.63 232.573C1289.22 228.598 1300.7 226.606 1314.07 226.606C1323.58 226.606 1333 227.623 1342.35 229.652C1351.69 231.681 1359.51 234.565 1365.79 238.281L1352.02 271.015C1340.42 264.252 1327.85 260.865 1314.31 260.865C1307.07 260.865 1301.75 261.752 1298.36 263.527C1294.98 265.302 1293.29 267.631 1293.29 270.506C1293.29 273.723 1295.14 275.965 1298.85 277.231C1302.56 278.498 1308.67 279.815 1317.22 281.165C1328.01 282.856 1336.95 284.806 1344.04 287.002C1351.13 289.202 1357.29 293.219 1362.53 299.056C1367.76 304.89 1370.38 313.052 1370.38 323.544C1370.38 332.169 1367.88 339.906 1362.89 346.761C1357.9 353.611 1350.53 358.986 1340.78 362.873C1331.03 366.765 1319.31 368.711 1305.62 368.711C1294.66 368.711 1283.86 367.398 1273.23 364.777Z" fill="currentColor"/>
<path d="M1480.58 360.837C1476.71 363.375 1472 365.325 1466.44 366.675C1460.88 368.029 1454.96 368.704 1448.68 368.704C1431.6 368.704 1418.47 364.308 1409.28 355.512C1400.1 346.716 1395.51 333.604 1395.51 316.179V269.996H1376.42V233.962H1395.51V198.183H1441.43V233.962H1471.4V269.996H1441.43V315.671C1441.43 320.579 1442.68 324.425 1445.18 327.216C1447.67 330.008 1451.01 331.404 1455.21 331.404C1460.52 331.404 1465.19 329.966 1469.22 327.091L1480.58 360.837Z" fill="currentColor"/>
<path d="M1540.64 267.207C1535.89 271.437 1532.87 277.191 1531.58 284.466H1585.23C1583.94 277.191 1580.92 271.437 1576.17 267.207C1571.41 262.982 1565.49 260.866 1558.4 260.866C1551.31 260.866 1545.39 262.982 1540.64 267.207ZM1627.52 309.837H1532.3C1534.24 316.945 1537.98 322.399 1543.54 326.207C1549.1 330.012 1556.07 331.916 1564.44 331.916C1570.73 331.916 1576.17 330.987 1580.76 329.124C1585.34 327.266 1589.98 324.22 1594.65 319.987L1618.82 346.378C1606.09 361.266 1587.49 368.707 1562.99 368.707C1547.69 368.707 1534.24 365.666 1522.64 359.574C1511.04 353.487 1502.05 345.024 1495.69 334.199C1489.32 323.374 1486.14 311.107 1486.14 297.403C1486.14 283.874 1489.24 271.737 1495.45 260.991C1501.65 250.249 1510.22 241.832 1521.19 235.741C1532.14 229.649 1544.47 226.607 1558.16 226.607C1571.21 226.607 1583.05 229.445 1593.69 235.107C1604.32 240.778 1612.74 248.978 1618.94 259.724C1625.14 270.466 1628.25 283.191 1628.25 297.912C1628.25 298.253 1628 302.224 1627.52 309.837Z" fill="currentColor"/>
<path d="M1858.68 241.827C1868.26 251.977 1873.06 267.289 1873.06 287.756V366.419H1827.14V295.623C1827.14 285.981 1825.41 278.873 1821.95 274.306C1818.48 269.739 1813.61 267.456 1807.33 267.456C1800.39 267.456 1794.83 269.994 1790.65 275.069C1786.46 280.144 1784.37 287.839 1784.37 298.16V366.419H1738.45V295.623C1738.45 276.844 1731.84 267.456 1718.63 267.456C1711.54 267.456 1705.9 269.994 1701.71 275.069C1697.53 280.144 1695.43 287.839 1695.43 298.16V366.419H1649.51V228.885H1693.25V243.348C1698.09 237.764 1703.85 233.581 1710.53 230.785C1717.22 227.998 1724.51 226.602 1732.41 226.602C1741.59 226.602 1749.81 228.377 1757.06 231.931C1764.31 235.485 1770.18 240.898 1774.7 248.169C1779.85 241.235 1786.38 235.906 1794.28 232.185C1802.17 228.464 1810.78 226.602 1820.13 226.602C1836.24 226.602 1849.09 231.673 1858.68 241.827Z" fill="currentColor"/>
<path d="M2037.63 228.887L1981.08 372.003C1974.47 388.92 1966.42 400.803 1956.91 407.653C1947.41 414.508 1935.81 417.937 1922.11 417.937C1915.18 417.937 1908.22 416.791 1901.21 414.508C1894.2 412.22 1888.52 409.216 1884.17 405.499L1900.12 371.749C1902.7 374.287 1905.8 376.274 1909.43 377.712C1913.05 379.149 1916.71 379.87 1920.42 379.87C1924.77 379.87 1928.35 378.937 1931.17 377.078C1933.99 375.216 1936.37 372.257 1938.31 368.195L1882.24 228.887H1929.36L1961.5 312.878L1993.89 228.887H2037.63Z" fill="currentColor"/>
<path d="M1055.24 503.837C1060.23 499.358 1062.73 492.97 1062.73 484.679C1062.73 476.391 1060.23 469.962 1055.24 465.395C1050.24 460.824 1042.83 458.541 1033.01 458.541H1006.42V510.558H1033.01C1042.83 510.558 1050.24 508.32 1055.24 503.837ZM1075.78 426.949C1087.06 432.279 1095.76 439.891 1101.88 449.787C1108 459.683 1111.06 471.316 1111.06 484.679C1111.06 498.041 1108 509.637 1101.88 519.441C1095.76 529.258 1087.06 536.824 1075.78 542.154C1064.5 547.483 1051.21 550.149 1035.91 550.149H1006.42V596.583H958.569V418.954H1035.91C1051.21 418.954 1064.5 421.62 1075.78 426.949Z" fill="currentColor"/>
<path d="M1257.88 471.997C1267.79 482.147 1272.74 497.459 1272.74 517.926V596.588H1226.83V525.792C1226.83 507.013 1219.65 497.626 1205.32 497.626C1197.42 497.626 1191.09 500.33 1186.35 505.747C1181.59 511.163 1179.22 519.284 1179.22 530.105V596.588H1133.3V459.055H1177.04V474.026C1182.2 468.442 1188.32 464.172 1195.41 461.209C1202.5 458.255 1210.23 456.772 1218.61 456.772C1234.88 456.772 1247.97 461.847 1257.88 471.997Z" fill="currentColor"/>
<path d="M1349.72 497.367C1344.97 501.596 1341.95 507.35 1340.66 514.621H1394.31C1393.02 507.35 1390 501.596 1385.25 497.367C1380.49 493.138 1374.57 491.021 1367.48 491.021C1360.39 491.021 1354.47 493.138 1349.72 497.367ZM1436.6 539.996H1341.38C1343.32 547.104 1347.06 552.558 1352.62 556.363C1358.18 560.171 1365.14 562.071 1373.52 562.071C1379.81 562.071 1385.24 561.146 1389.84 559.283C1394.43 557.425 1399.06 554.379 1403.73 550.146L1427.9 576.538C1415.17 591.425 1396.56 598.867 1372.07 598.867C1356.77 598.867 1343.32 595.821 1331.72 589.729C1320.12 583.642 1311.13 575.183 1304.77 564.358C1298.4 553.529 1295.22 541.263 1295.22 527.563C1295.22 514.033 1298.32 501.892 1304.53 491.15C1310.73 480.408 1319.3 471.992 1330.27 465.9C1341.22 459.808 1353.55 456.763 1367.24 456.763C1380.29 456.763 1392.13 459.6 1402.77 465.263C1413.4 470.938 1421.82 479.138 1428.02 489.879C1434.22 500.625 1437.32 513.35 1437.32 528.067C1437.32 528.413 1437.08 532.383 1436.6 539.996Z" fill="currentColor"/>
<path d="M1596.34 459.047V596.584H1552.6V581.868C1547.77 587.447 1541.97 591.68 1535.2 594.551C1528.43 597.43 1521.26 598.868 1513.69 598.868C1496.77 598.868 1483.28 593.626 1473.21 583.134C1463.14 572.647 1458.1 556.914 1458.1 535.939V459.047H1504.02V528.068C1504.02 538.389 1505.87 545.922 1509.58 550.651C1513.29 555.393 1518.68 557.759 1525.77 557.759C1533.02 557.759 1538.94 555.097 1543.54 549.768C1548.13 544.434 1550.42 536.276 1550.42 525.28V459.047H1596.34Z" fill="currentColor"/>
<path d="M1834.99 471.997C1844.57 482.147 1849.37 497.459 1849.37 517.926V596.588H1803.45V525.792C1803.45 516.151 1801.72 509.047 1798.26 504.476C1794.79 499.909 1789.92 497.626 1783.64 497.626C1776.7 497.626 1771.15 500.163 1766.96 505.238C1762.77 510.313 1760.68 518.013 1760.68 528.334V596.588H1714.76V525.792C1714.76 507.013 1708.15 497.626 1694.94 497.626C1687.85 497.626 1682.21 500.163 1678.02 505.238C1673.84 510.313 1671.74 518.013 1671.74 528.334V596.588H1625.82V459.055H1669.56V473.517C1674.4 467.934 1680.16 463.751 1686.85 460.959C1693.53 458.163 1700.82 456.772 1708.72 456.772C1717.9 456.772 1726.12 458.547 1733.37 462.101C1740.62 465.655 1746.5 471.067 1751.01 478.338C1756.16 471.405 1762.69 466.076 1770.59 462.355C1778.48 458.634 1787.1 456.772 1796.45 456.772C1812.55 456.772 1825.4 461.847 1834.99 471.997Z" fill="currentColor"/>
<path d="M1946.52 564.357C1950.55 561.653 1953.45 557.674 1955.22 552.428V540.503H1935.41C1922.03 540.503 1915.35 545.157 1915.35 554.461C1915.35 558.691 1916.87 562.07 1919.94 564.611C1923 567.145 1927.19 568.416 1932.5 568.416C1937.82 568.416 1942.49 567.061 1946.52 564.357ZM1983.98 472.366C1995.42 482.77 2001.14 498.72 2001.14 520.203V596.582H1958.36V578.82C1951.75 592.186 1938.87 598.866 1919.7 598.866C1909.55 598.866 1900.76 596.999 1893.35 593.282C1885.94 589.561 1880.34 584.528 1876.56 578.182C1872.77 571.841 1870.88 564.611 1870.88 556.486C1870.88 543.461 1875.63 533.361 1885.14 526.166C1894.64 518.978 1909.3 515.382 1929.12 515.382H1955.22C1954.41 500.832 1945.15 493.557 1927.43 493.557C1921.15 493.557 1914.78 494.616 1908.34 496.732C1901.89 498.845 1896.41 501.766 1891.9 505.482L1876.44 472.753C1883.69 467.674 1892.51 463.745 1902.9 460.949C1913.29 458.157 1923.72 456.761 1934.2 456.761C1955.95 456.761 1972.54 461.966 1983.98 472.366Z" fill="currentColor"/>
<path d="M2120.52 591.007C2116.65 593.54 2111.94 595.49 2106.38 596.84C2100.83 598.195 2094.91 598.87 2088.62 598.87C2071.55 598.87 2058.41 594.474 2049.23 585.674C2040.05 576.882 2035.45 563.77 2035.45 546.345V500.161H2016.36V464.128H2035.45V428.349H2081.37V464.128H2111.34V500.161H2081.37V545.84C2081.37 550.745 2082.62 554.59 2085.12 557.382C2087.61 560.178 2090.96 561.57 2095.15 561.57C2100.46 561.57 2105.14 560.136 2109.17 557.257L2120.52 591.007Z" fill="currentColor"/>
<path d="M2273.74 459.047L2217.19 602.163C2210.58 619.08 2202.53 630.968 2193.02 637.818C2183.51 644.672 2171.92 648.097 2158.22 648.097C2151.29 648.097 2144.33 646.955 2137.32 644.672C2130.31 642.388 2124.63 639.384 2120.28 635.663L2136.23 601.913C2138.81 604.451 2141.91 606.438 2145.54 607.876C2149.16 609.309 2152.82 610.03 2156.53 610.03C2160.88 610.03 2164.47 609.101 2167.28 607.238C2170.1 605.38 2172.48 602.422 2174.41 598.363L2118.35 459.047H2165.47L2197.61 543.043L2230 459.047H2273.74Z" fill="currentColor"/>
<path d="M2309.99 589.727C2298.55 583.636 2289.65 575.182 2283.29 564.357C2276.92 553.527 2273.74 541.261 2273.74 527.561C2273.74 513.857 2276.92 501.636 2283.29 490.89C2289.65 480.152 2298.55 471.777 2309.99 465.769C2321.43 459.769 2334.4 456.761 2348.9 456.761C2363.72 456.761 2376.53 460.102 2387.33 466.786C2398.12 473.469 2405.77 482.732 2410.29 494.573L2374.76 513.598C2368.8 501.252 2360.1 495.077 2348.66 495.077C2340.45 495.077 2333.63 497.957 2328.24 503.707C2322.84 509.457 2320.14 517.411 2320.14 527.561C2320.14 537.882 2322.84 545.957 2328.24 551.79C2333.63 557.627 2340.45 560.548 2348.66 560.548C2360.1 560.548 2368.8 554.373 2374.76 542.023L2410.29 561.052C2405.77 572.898 2398.12 582.161 2387.33 588.84C2376.53 595.527 2363.72 598.861 2348.9 598.861C2334.4 598.861 2321.43 595.815 2309.99 589.727Z" fill="currentColor"/>
<path d="M2541.27 560.557V596.59H2420.43V568.169L2481.09 494.836H2422.12V459.052H2538.85V487.223L2478.2 560.557H2541.27Z" fill="currentColor"/>
<path d="M2686.15 471.997C2696.06 482.147 2701.01 497.459 2701.01 517.926V596.588H2655.1V525.792C2655.1 507.013 2647.92 497.626 2633.59 497.626C2625.69 497.626 2619.37 500.33 2614.62 505.747C2609.86 511.163 2607.49 519.284 2607.49 530.105V596.588H2561.57V459.055H2605.31V474.026C2610.47 468.442 2616.59 464.172 2623.68 461.209C2630.77 458.255 2638.5 456.772 2646.88 456.772C2663.15 456.772 2676.25 461.847 2686.15 471.997Z" fill="currentColor"/>
<path d="M2777.98 497.367C2773.23 501.596 2770.21 507.35 2768.91 514.621H2822.57C2821.28 507.35 2818.25 501.596 2813.5 497.367C2808.75 493.138 2802.83 491.021 2795.74 491.021C2788.65 491.021 2782.73 493.138 2777.98 497.367ZM2864.86 539.996H2769.64C2771.58 547.104 2775.32 552.558 2780.88 556.363C2786.44 560.171 2793.41 562.071 2801.78 562.071C2808.07 562.071 2813.51 561.146 2818.1 559.283C2822.69 557.425 2827.32 554.379 2831.99 550.146L2856.16 576.538C2843.43 591.425 2824.82 598.867 2800.33 598.867C2785.03 598.867 2771.58 595.821 2759.97 589.729C2748.38 583.642 2739.39 575.183 2733.03 564.358C2726.66 553.529 2723.48 541.263 2723.48 527.563C2723.48 514.033 2726.58 501.892 2732.79 491.15C2738.99 480.408 2747.57 471.992 2758.53 465.9C2769.48 459.808 2781.8 456.763 2795.5 456.763C2808.55 456.763 2820.39 459.6 2831.03 465.263C2841.66 470.938 2850.08 479.138 2856.28 489.879C2862.48 500.625 2865.58 513.35 2865.58 528.067C2865.58 528.413 2865.34 532.383 2864.86 539.996Z" fill="currentColor"/>
<path d="M0.169922 416.667C0.169922 646.792 186.712 833.337 416.837 833.337C646.957 833.337 833.503 646.792 833.503 416.667C833.503 186.542 646.957 0 416.837 0C186.712 0 0.169922 186.542 0.169922 416.667ZM121.849 416.667C121.849 253.763 253.928 121.683 416.837 121.683C579.741 121.683 711.82 253.763 711.82 416.667C711.82 579.575 579.741 711.654 416.837 711.654C253.928 711.654 121.849 579.575 121.849 416.667ZM295.678 217.133C289.695 225.492 282.412 235.896 273.749 248.638C240.307 293.308 249.662 356.671 294.582 389.771L476.862 524.092C503.878 543.992 519.245 576.013 517.891 609.554C517.466 620.271 531.195 625.038 537.503 616.358C548.074 601.808 558.878 586.842 559.941 585.017C593.37 540.292 583.991 476.9 539.037 443.779L356.832 309.525C329.778 289.625 314.42 257.567 315.766 224.058C316.053 217.017 310.366 212.479 304.553 212.479C301.287 212.479 297.982 213.912 295.678 217.133Z" fill="currentColor"/>
</svg>
